<svg version="1.1" id="Layer_1" xmlns="http://www.w3.org/2000/svg"
    xmlns:xlink="http://www.w3.org/1999/xlink" x="0px" y="0px" width="147.859px" height="39px"
    viewBox="-68.228 -17.996 147.859 39" enable-background="new -669.158 -176.5 1450.158 382.5"
    xml:space="preserve"><path fill="#2D2F8F" d="M-50.56 -13.086c7.927 0 14.353 6.426 14.353 14.354 0 7.927 -6.426 14.354 -14.353 14.354 -7.928 0 -14.354 -6.426 -14.354 -14.354 0 -7.928 6.426 -14.354 14.354 -14.354m0 1.468c-7.117 0 -12.886 5.769 -12.886 12.886s5.769 12.886 12.886 12.886c7.117 0 12.886 -5.769 12.886 -12.886 0 -7.117 -5.769 -12.886 -12.886 -12.886"/><path fill="#C6168D" d="M-47.712 -1.533c-0.763 0 -1.381 -0.618 -1.381 -1.381 0 -0.762 0.618 -1.381 1.381 -1.381h1.875c0.061 0 0.121 0.004 0.181 0.012 0.675 0.04 1.281 0.194 1.803 0.439 0.695 0.327 1.24 0.811 1.61 1.41 0.373 0.604 0.559 1.308 0.531 2.065 -0.021 0.586 -0.171 1.2 -0.463 1.818 -0.013 0.031 -0.03 0.061 -0.046 0.09l0.002 0.001 -4.319 7.666c-0.373 0.664 -1.213 0.901 -1.877 0.529 -0.664 -0.372 -0.901 -1.213 -0.528 -1.877l4.311 -7.651c0.107 -0.246 0.162 -0.472 0.169 -0.674 0.008 -0.205 -0.034 -0.383 -0.121 -0.523 -0.09 -0.146 -0.237 -0.271 -0.435 -0.364 -0.209 -0.098 -0.468 -0.161 -0.775 -0.182l-0.043 0.001h-1.875v0z"/><path fill="#383293" d="M-54.663 -5.503c-0.274 -0.709 0.078 -1.506 0.787 -1.78 0.709 -0.274 1.506 0.079 1.78 0.787l5.639 14.533c0.274 0.709 -0.079 1.506 -0.787 1.78 -0.71 0.274 -1.506 -0.079 -1.781 -0.787z"/><path fill="#0088CA" d="M-53.407 4.068c0.762 0 1.381 0.618 1.381 1.381 0 0.762 -0.619 1.38 -1.381 1.38h-1.875a1.427 1.427 0 0 1 -0.18 -0.011c-0.675 -0.04 -1.281 -0.194 -1.803 -0.439 -0.695 -0.326 -1.24 -0.811 -1.61 -1.41 -0.373 -0.605 -0.559 -1.308 -0.531 -2.066 0.021 -0.586 0.171 -1.2 0.462 -1.818 0.014 -0.031 0.03 -0.061 0.046 -0.09l-0.003 -0.001 4.32 -7.667c0.372 -0.664 1.213 -0.901 1.877 -0.528 0.664 0.372 0.901 1.213 0.529 1.877l-4.311 7.651c-0.106 0.245 -0.161 0.472 -0.169 0.674 -0.008 0.206 0.034 0.383 0.121 0.523 0.09 0.146 0.238 0.271 0.435 0.363 0.209 0.098 0.468 0.161 0.775 0.182l0.044 -0.001h1.875v-0.001z"/><path fill="#291C69" d="M-54.663 -5.503c-0.274 -0.709 0.078 -1.506 0.787 -1.78 0.709 -0.274 1.506 0.079 1.78 0.787l0.029 0.075a1.375 1.375 0 0 1 -0.11 1.095l-1.432 2.541z"/><path fill="#291C69" d="M-49.053 8.955a1.369 1.369 0 0 1 0.11 -1.095l1.431 -2.541 1.055 2.719c0.274 0.709 -0.079 1.506 -0.787 1.78 -0.71 0.274 -1.506 -0.079 -1.781 -0.787z"/><path d="M23.771 9.258c0 1.247 0.987 2.234 2.233 2.234h5.684c6.38 0 10.79 -4.438 10.79 -10.152v-0.058c0 -5.714 -4.409 -10.093 -10.79 -10.093h-5.684c-1.247 0 -2.233 0.986 -2.233 2.233zm4.466 -1.798V-4.78h3.451c3.655 0 6.119 2.524 6.119 6.12v0.058c0 3.596 -2.465 6.062 -6.119 6.062h-3.451z"/><path d="M15.806 9.432c0 1.247 0.986 2.233 2.233 2.233 1.247 0 2.233 -0.986 2.233 -2.233V-6.752c0 -1.247 -0.986 -2.233 -2.233 -2.233s-2.233 0.986 -2.233 2.233z"/><path d="M4.071 11.81h0.29c1.219 0 2.059 -0.667 2.524 -1.769l6.642 -15.894c0.117 -0.261 0.232 -0.638 0.232 -0.986 0 -1.218 -0.986 -2.146 -2.205 -2.146 -1.073 0 -1.856 0.696 -2.146 1.421L4.275 5.72 -0.802 -7.419c-0.348 -0.899 -1.102 -1.566 -2.262 -1.566 -1.248 0 -2.233 0.957 -2.233 2.204 0 0.377 0.116 0.725 0.261 1.073L1.547 10.041c0.465 1.102 1.306 1.769 2.524 1.769"/><path d="M-11.841 9.432c0 1.247 0.986 2.233 2.233 2.233 1.248 0 2.233 -0.986 2.233 -2.233V-6.752c0 -1.247 -0.986 -2.233 -2.233 -2.233 -1.247 0 -2.233 0.986 -2.233 2.233z"/><path d="M-34.075 9.577c0 1.16 0.899 2.088 2.059 2.088 0.928 0 1.683 -0.522 2.06 -1.392l0.711 -1.668 3.233 -7.683 1.943 -4.629 1.761 4.191 3.385 8.039 0.685 1.605c0.405 0.928 1.102 1.537 2.146 1.537 1.19 0 2.117 -0.958 2.117 -2.146 0 -0.29 -0.087 -0.58 -0.232 -0.899l-7.077 -15.981c-0.494 -1.102 -1.364 -1.769 -2.581 -1.769h-0.262c-1.217 0 -2.116 0.667 -2.609 1.769l-7.077 15.981c-0.145 0.319 -0.261 0.638 -0.261 0.957"/><path fill="#383293" d="M45.905 11.665c1.016 0 1.845 -0.829 1.845 -1.844 0 -1.016 -0.829 -1.845 -1.845 -1.845 -1.016 0 -1.844 0.829 -1.844 1.845 0 1.016 0.829 1.844 1.844 1.844"/><path fill="#C6168D" d="M72.914 9.432c0 1.247 0.987 2.233 2.233 2.233 1.248 0 2.233 -0.986 2.233 -2.233V-6.752c0 -1.247 -0.986 -2.233 -2.233 -2.233 -1.247 0 -2.233 0.986 -2.233 2.233z"/><path fill="#0088CA" d="M50.68 9.577c0 1.16 0.899 2.088 2.059 2.088 0.928 0 1.683 -0.522 2.06 -1.392l0.711 -1.668 3.233 -7.683 1.943 -4.629L62.446 0.484l3.384 8.039 0.685 1.605c0.405 0.928 1.102 1.537 2.146 1.537 1.189 0 2.117 -0.958 2.117 -2.146 0 -0.29 -0.087 -0.58 -0.232 -0.899L63.47 -7.361c-0.494 -1.102 -1.364 -1.769 -2.581 -1.769h-0.262c-1.217 0 -2.116 0.667 -2.609 1.769L50.941 8.62c-0.145 0.319 -0.261 0.638 -0.261 0.957"/></svg>